<svg id="SvgjsSvg1008" xmlns="http://www.w3.org/2000/svg" version="1.1" xmlns:xlink="http://www.w3.org/1999/xlink" xmlns:svgjs="http://svgjs.com/svgjs" width="17" height="17"><defs id="SvgjsDefs1009"></defs><path id="SvgjsPath1010" d="M1395 493L1395 487L1397 487L1397 493Z " fill="#ffffff" transform="matrix(1,0,0,1,-1388,-483)"></path><path id="SvgjsPath1011" d="M1397 491L1397 493L1391 493L1391 491Z " fill="#ffffff" transform="matrix(1,0,0,1,-1388,-483)"></path><path id="SvgjsPath1012" d="M1402.24 486.989C1403.34 488.361 1404.01 490.102 1404.01 491.99699999999996C1404.01 496.40799999999996 1400.42 499.996 1396.01 499.996C1391.59 499.996 1388 496.40799999999996 1388 491.99699999999996C1388 487.58599999999996 1391.59 483.99799999999993 1396.01 483.99799999999993C1397.73 483.99799999999993 1399.33 484.55299999999994 1400.64 485.4869999999999C1400.99 485.6789999999999 1402.0200000000002 486.56999999999994 1402.24 486.9889999999999ZM1390.21 491.997C1390.21 495.19100000000003 1392.81 497.79 1396.01 497.79C1399.2 497.79 1401.8 495.19100000000003 1401.8 491.997C1401.8 488.803 1399.2 486.20500000000004 1396.01 486.20500000000004C1392.81 486.20500000000004 1390.21 488.80300000000005 1390.21 491.997Z " fill="#ffffff" transform="matrix(1,0,0,1,-1388,-483)"></path></svg>