<?xml version="1.0" encoding="UTF-8" standalone="no"?>
<svg width="25px" height="19px" viewBox="0 0 25 19" version="1.1" xmlns="http://www.w3.org/2000/svg" xmlns:xlink="http://www.w3.org/1999/xlink">
    <!-- Generator: Sketch 41 (35326) - http://www.bohemiancoding.com/sketch -->
    <title>SvgjsPath1019</title>
    <desc>Created with Sketch.</desc>
    <defs></defs>
    <g id="Page-1" stroke="none" stroke-width="1" fill="none" fill-rule="evenodd">
        <g id="icon-comment" transform="translate(2.000000, 2.000000)" fill="#FFFFFF">
            <path d="M-0.78811566,17 L6.08,17 C8.18774708,17 10.1378514,15.9030748 12.0077184,14.1253546 C18.1029444,13.6715802 23,10.4827482 23,6.09 C23,1.3328065 17.2563879,-2 10.5,-2 C3.7436121,-2 -2,1.3328065 -2,6.09 C-2,9.43012006 0.836655002,12.089797 4.92281796,13.3657695 L-0.78811566,17 Z M8.34385397,10.0388377 C4.51104744,9.50903292 2,7.6895598 2,6.09 C2,4.12443035 5.6611498,2 10.5,2 C15.3388502,2 19,4.12443035 19,6.09 C19,7.96022821 15.6566741,10.0127764 11.0709503,10.1711923 L10.2654858,10.1990175 L10.1753027,10.2919969 L8.34385397,10.0388377 Z" id="SvgjsPath1019"></path>
        </g>
    </g>
</svg>