<svg id="SvgjsSvg1011" xmlns="http://www.w3.org/2000/svg" version="1.1" xmlns:xlink="http://www.w3.org/1999/xlink" xmlns:svgjs="http://svgjs.com/svgjs" width="15" height="13"><defs id="SvgjsDefs1012"></defs><path id="SvgjsPath1013" d="M213.663 1021C214.217 1021 223.941 1021 224.323 1021C224.81900000000002 1021 225.18800000000002 1021.53 224.898 1022.06C224.666 1022.4799999999999 219.97899999999998 1030.8999999999999 219.578 1031.62C219.315 1032.09 218.687 1032.08 218.423 1031.62C218.129 1031.1 213.419 1022.6499999999999 213.092 1022.0399999999998C212.852 1021.5899999999998 213.11700000000002 1020.9999999999999 213.663 1020.9999999999999Z " fill="#00aeef" transform="matrix(1,0,0,1,-212,-1020)"></path><path id="SvgjsPath1014" d="M213.663 1021C214.217 1021 223.941 1021 224.323 1021C224.81900000000002 1021 225.18800000000002 1021.53 224.898 1022.06C224.666 1022.4799999999999 219.97899999999998 1030.8999999999999 219.578 1031.62C219.315 1032.09 218.687 1032.08 218.423 1031.62C218.129 1031.1 213.419 1022.6499999999999 213.092 1022.0399999999998C212.852 1021.5899999999998 213.11700000000002 1020.9999999999999 213.663 1020.9999999999999Z " fill-opacity="0" fill="#ffffff" stroke-dasharray="0" stroke-linejoin="round" stroke-linecap="round" stroke-opacity="1" stroke="#c1a285" stroke-miterlimit="50" stroke-width="2" transform="matrix(1,0,0,1,-212,-1020)"></path></svg>