<?xml version="1.0" encoding="utf-8"?>
<!-- Generator: Adobe Illustrator 17.0.1, SVG Export Plug-In . SVG Version: 6.00 Build 0)  -->
<!DOCTYPE svg PUBLIC "-//W3C//DTD SVG 1.1//EN" "http://www.w3.org/Graphics/SVG/1.1/DTD/svg11.dtd">
<svg version="1.1" id="Layer_1" xmlns="http://www.w3.org/2000/svg" xmlns:xlink="http://www.w3.org/1999/xlink" x="0px" y="0px"
	 width="898.614px" height="298.828px" viewBox="0 0 898.614 298.828" enable-background="new 0 0 898.614 298.828"
	 xml:space="preserve">
<g>
	<g>
		<g>
			<path fill="#f5dfcc" d="M22.456,157.037c0-50.215,31.178-93.281,75.191-110.868l16.283-28.203
				c-27.254,5.401-52.31,18.72-72.399,38.809C14.749,83.556,0,119.163,0,157.037c0,15.689,2.538,30.986,7.407,45.431l16.294-28.222
				C22.886,168.624,22.456,162.88,22.456,157.037z"/>
			<path fill="#f5dfcc" d="M261.127,157.037c0,5.843-0.43,11.587-1.245,17.207l16.294,28.222c4.868-14.444,7.407-29.741,7.407-45.43
				c0-37.874-14.749-73.481-41.53-100.261c-20.089-20.089-45.145-33.408-72.398-38.809l16.283,28.203
				C229.949,63.757,261.127,106.822,261.127,157.037z"/>
			<path fill="#f5dfcc" d="M141.791,276.373c-29.258,0-56.085-10.59-76.864-28.13H33.225c2.626,3.116,5.39,6.141,8.305,9.056
				c26.781,26.781,62.388,41.53,100.262,41.53s73.481-14.749,100.261-41.53c2.915-2.915,5.678-5.94,8.305-9.056h-31.702
				C197.876,265.783,171.049,276.373,141.791,276.373z"/>
		</g>
		<g>
			<g>
				<path fill="#f5dfcc" d="M193.137,223.358c6.409,7.898,19.975,14.36,30.146,14.36h42.695c10.171,0,14.332-7.207,9.246-16.015
					l-46.38-80.332c-5.086-8.808-16.775-12.469-25.976-8.136l-43.221,20.357c-9.202,4.334-11.486,14.342-5.077,22.239
					L193.137,223.358z"/>
			</g>
			<g>
				<path fill="#f5dfcc" d="M155.434,201.436c-7.406-6.972-19.525-6.972-26.93,0l-27.112,25.523
					c-7.406,6.972-5.143,12.676,5.028,12.676h71.1c10.171,0,12.434-5.704,5.028-12.676L155.434,201.436z"/>
			</g>
			<g>
				<path fill="#f5dfcc" d="M201.208,127.304c10.114-1.072,14.229-9.156,9.143-17.965L151.038,6.606
					c-5.086-8.808-13.407-8.808-18.493,0L73.231,109.341c-5.086,8.808-0.971,16.893,9.143,17.967l40.983,4.349
					c10.114,1.073,26.665,1.074,36.779,0.002L201.208,127.304z"/>
			</g>
			<g>
				<path fill="#f5dfcc" d="M80.712,133.243c-9.2-4.338-20.888-0.68-25.973,8.129L8.36,221.702
					c-5.086,8.808-0.925,16.015,9.246,16.015h43.023c10.171,0,23.716-6.479,30.099-14.397l38.251-47.45
					c6.383-7.919,4.079-17.946-5.121-22.284L80.712,133.243z"/>
			</g>
		</g>
	</g>
	<g>
		<path fill="#f5dfcc" d="M323.651,87.848h5.68c41.569,0,39.878,54.669,0,54.79h-27.19V58.531h51.358v17.422h-29.848V87.848z
			 M323.651,105.991v18.263h5.68c11.963,0,12.568-18.263,0-18.263H323.651z"/>
		<path fill="#f5dfcc" d="M420.411,76.554h-31.177v14.899h29.848v18.023h-29.848v14.899h31.177v18.263h-51.962V58.531h51.962V76.554
			z"/>
		<path fill="#f5dfcc" d="M486.03,58.531v18.504h-19.697v65.603h-21.631V77.035h-19.455V58.531H486.03z"/>
		<path fill="#f5dfcc" d="M575.514,100.705c0,26.433-19.939,43.495-43.745,43.495c-23.927,0-43.866-16.942-43.866-43.495
			c0-26.433,19.939-43.616,43.866-43.616C555.575,57.089,575.514,74.632,575.514,100.705z M531.77,124.855
			c10.876,0,21.993-6.007,21.993-24.15c0-17.422-11.238-24.271-22.114-24.271c-11.48,0-21.993,8.05-21.993,24.271
			C509.655,117.046,520.894,124.855,531.77,124.855z"/>
		<path fill="#f5dfcc" d="M631.165,110.077h-23.202v32.561h-21.752V58.531h21.752v32.801h23.202V58.531h21.631v84.106h-21.631
			V110.077z"/>
		<path fill="#f5dfcc" d="M712.615,110.077h-23.202v32.561h-21.752V58.531h21.752v32.801h23.202V58.531h21.631v84.106h-21.631
			V110.077z"/>
		<path fill="#f5dfcc" d="M796.386,122.091h-26.948l-6.405,20.546h-22.96l28.881-84.948h28.035l29.244,84.948h-23.081
			L796.386,122.091z M782.61,73.07l-2.175,11.775l-5.317,18.143h15.589l-5.075-18.143l-2.175-11.775H782.61z"/>
		<path fill="#f5dfcc" d="M849.715,109.956c-13.051-3.244-17.401-13.697-17.522-23.43c-0.242-14.659,12.084-27.995,32.506-27.995
			h31.419v84.106h-21.51V113.32h-4.592l-17.28,29.317h-23.444L849.715,109.956z M874.488,96.019V76.675h-9.909
			c-7.251,0-10.755,4.926-10.755,9.732c0,4.806,3.504,9.612,10.392,9.612H874.488z"/>
		<path fill="#f5dfcc" d="M302.52,155.153h50.919v75.93h-19.351V171.64h-13.405l-1.081,23.647
			c-0.216,13.017-3.459,31.891-24.324,37.206l-7.351-13.017c11.892-6.074,11.567-12.691,12.541-24.623L302.52,155.153z"/>
		<path fill="#f5dfcc" d="M440.301,193.226c0,23.864-17.838,39.267-39.135,39.267c-21.406,0-39.243-15.295-39.243-39.267
			c0-23.864,17.838-39.375,39.243-39.375C422.463,153.851,440.301,169.688,440.301,193.226z M401.166,215.029
			c9.73,0,19.675-5.424,19.675-21.803c0-15.729-10.054-21.911-19.784-21.911c-10.27,0-19.676,7.268-19.676,21.911
			C381.382,207.978,391.436,215.029,401.166,215.029z"/>
		<path fill="#f5dfcc" d="M495.91,171.423h-27.135v59.659h-19.243v-75.93h46.378V171.423z"/>
		<path fill="#f5dfcc" d="M555.239,173.267l-5.838,16.379l-19.46,41.436h-27.135v-75.93h19.135v40.785l-2.703,18.657l0.541,0.217
			l6.811-18.115l20.108-41.545h25.514v75.93H552.86V190.08l3.135-16.596L555.239,173.267z"/>
		<path fill="#f5dfcc" d="M584.88,155.153h19.135v29.938l4.433-7.918l16.865-22.02h22.378l-28.324,34.711l29.081,41.219h-22.162
			l-20.108-28.311l-2.162,2.278v26.033H584.88V155.153z"/>
		<path fill="#f5dfcc" d="M699.073,212.534h-24.108l-5.73,18.549h-20.54l25.838-76.689h25.081l26.162,76.689h-20.649
			L699.073,212.534z M686.749,168.277l-1.946,10.63l-4.757,16.379h13.946l-4.541-16.379l-1.946-10.63H686.749z"/>
		<path fill="#f5dfcc" d="M731.839,231.299v-17.681h18.703v17.681H731.839z"/>
		<path fill="#f5dfcc" d="M780.681,231.082h-19.027v-75.93h25.189c39.135,0.217,37.946,54.452,0.108,54.452h-6.27V231.082z
			 M786.843,171.315h-6.486v22.888h6.486C800.249,194.202,800.897,171.315,786.843,171.315z"/>
		<path fill="#f5dfcc" d="M850.451,154.502h19.135v8.136c38.595,0.542,38.811,59.984,0,60.31v8.678h-19.135v-8.678
			c-39.459-0.109-38.702-59.767,0-60.31V154.502z M850.559,177.28c-14.594,0-14.378,30.59,0,31.132V177.28z M869.154,177.28
			c0-0.108,0,31.132,0,31.132C883.532,207.87,883.749,177.28,869.154,177.28z"/>
	</g>
</g>
</svg>
